<svg id="Слой_1" data-name="Слой 1"
  xmlns="http://www.w3.org/2000/svg"
  xmlns:xlink="http://www.w3.org/1999/xlink" viewBox="0 0 953.9 906.16">
  <defs>
    <style>
      .cls-1{fill:none;}
      .cls-2{fill:#ff4e00;}
      .cls-3{fill:#273a65;display:none;}
      .cls-4{fill:#8d03ff;}
      .cls-5{clip-path:url(#clip-path);}
      .cls-6{fill:#bcbec0;}
      .cls-7{fill:#d1d3d4;}
      .cls-11,.cls-8{fill:#ffbd00;}
      .cls-9{clip-path:url(#clip-path-2);}
      .cls-10{fill:#ecf0f1;}
      .cls-11{opacity:0.1;}
    </style>
    <clipPath id="clip-path" transform="translate(-7000.81 -1436.36)">
      <rect class="cls-1" x="7055.64" y="1443.45" width="899.07" height="899.07"/>
    </clipPath>
    <clipPath id="clip-path-2" transform="translate(-7000.81 -1436.36)">
      <rect class="cls-2" x="7299.95" y="1968.01" width="323.59" height="285.23"/>
    </clipPath>
  </defs>
  <title>gift-b</title>
  <rect class="cls-3" x="54.83" y="7.1" width="899.07" height="899.07"/>
  <polygon class="cls-4" points="694.43 569.6 713.08 441.42 764.35 457.74 694.43 569.6"/>
  <polygon class="cls-4" points="706.09 595.24 841.26 618.54 806.3 662.82 706.09 595.24"/>
  <g class="cls-5">
    <path class="cls-4" d="M7867.9,2200.95s-12.8,11-17.09,11.19l12.1,30.51c-0.51,0-1.07.05-1.68,0.05-10,0-35.7-7.05-159.78-145.07-27.52-30.61-54.7-43.89-83.09-40.62-33.87,3.92-64.42,31.25-84.08,53.48a311.64,311.64,0,0,0-36,49.86l-37.45-20.56c2.57-4.69,64.07-115,152.6-125.22,42.55-4.92,82.84,13.41,119.77,54.49" transform="translate(-7000.81 -1436.36)"/>
    <rect class="cls-2" x="7526.89" y="2048.56" width="361.06" height="64.27" transform="translate(-447.49 -7255.13) rotate(66.58)"/>
    <rect class="cls-4" x="7675.99" y="2049.23" width="63.44" height="64.27" transform="translate(-446.72 -7255) rotate(66.58)"/>
    <polygon class="cls-6" points="342.22 531.65 342.22 513.2 299.14 531.65 342.22 531.65"/>
    <rect class="cls-7" x="342.22" y="513.2" width="237.43" height="18.45"/>
    <polygon class="cls-6" points="579.65 531.65 579.65 513.2 622.73 531.65 579.65 531.65"/>
    <polygon class="cls-8" points="460.08 756.23 931.87 0 0 0 460.08 756.23"/>
    <rect class="cls-2" x="299.14" y="531.65" width="323.59" height="285.23"/>
    <g class="cls-9">
      <rect class="cls-10" x="6996.98" y="1861.16" width="713.33" height="20.37" transform="translate(-6170.22 4311.56) rotate(-45)"/>
      <rect class="cls-10" x="6959.83" y="1824.01" width="713.33" height="20.37" transform="translate(-6154.83 4274.41) rotate(-45)"/>
      <rect class="cls-10" x="6922.67" y="1786.86" width="713.33" height="20.37" transform="translate(-6139.44 4237.26) rotate(-45)"/>
    </g>
    <rect class="cls-4" x="429.94" y="531.65" width="63.44" height="285.23"/>
  </g>
  <polygon class="cls-8" points="282.35 726.99 282.08 747.69 301.69 754.33 281.92 760.47 281.67 781.17 269.72 764.26 249.96 770.42 262.34 753.83 250.38 736.94 269.98 743.59 282.35 726.99"/>
  <polygon class="cls-11" points="301.69 754.33 282.08 747.69 282.35 726.99 269.72 764.26 281.67 781.17 281.92 760.47 301.69 754.33"/>
  <polygon class="cls-8" points="726.95 498.57 736.3 509.05 749.15 503.39 742.07 515.52 751.43 526 737.71 523.01 730.64 535.15 729.23 521.17 715.51 518.2 728.37 512.55 726.95 498.57"/>
  <polygon class="cls-11" points="749.15 503.39 736.3 509.05 726.95 498.57 737.71 523.01 751.43 526 742.07 515.52 749.15 503.39"/>
  <polygon class="cls-8" points="330.38 685.15 335.73 692.84 344.69 690.12 339.03 697.59 344.38 705.27 335.54 702.19 329.88 709.66 330.07 700.3 321.22 697.23 330.19 694.51 330.38 685.15"/>
  <polygon class="cls-11" points="344.69 690.12 335.73 692.84 330.38 685.15 335.54 702.19 344.38 705.27 339.03 697.59 344.69 690.12"/>
  <polygon class="cls-8" points="609.14 599.3 599.89 600.78 598.45 610.03 594.18 601.7 584.93 603.18 591.54 596.55 587.27 588.21 595.62 592.45 602.23 585.81 600.78 595.07 609.14 599.3"/>
  <polygon class="cls-11" points="598.45 610.03 599.89 600.78 609.14 599.3 591.54 596.55 584.93 603.18 594.18 601.7 598.45 610.03"/>
  <polygon class="cls-8" points="599.7 623.68 613.63 640.59 634.01 632.55 622.23 651.03 636.18 667.92 614.97 662.43 603.21 680.92 601.87 659.05 580.66 653.58 601.05 645.55 599.7 623.68"/>
  <polygon class="cls-11" points="634.01 632.55 613.63 640.59 599.7 623.68 614.97 662.43 636.18 667.92 622.23 651.03 634.01 632.55"/>
</svg>