<svg id="Слой_1" data-name="Слой 1" xmlns="http://www.w3.org/2000/svg" viewBox="0 0 406.26 157.3"><defs><style>.cls-1{fill:#fff;}.cls-2{fill:#ff3a00;}</style></defs><title>logo</title><path class="cls-1" d="M9122.92,849.6l-9.26,0v-5.28l24.23,0v5.28l-9.26,0,0,25h-5.71Z" transform="translate(-9113.66 -818.71)"/><path class="cls-1" d="M9163.7,844.39v5.11l-15.19,0v7l14,0v5.11l-14,0v8l15.32,0v5.1l-21,0,0-30.29Z" transform="translate(-9113.66 -818.71)"/><path class="cls-1" d="M9169.73,844.4l13.76,0c6.84,0,11.33,3.52,11.32,9.88s-4.51,9.86-11.35,9.85h-8l0,10.56h-5.71ZM9183.29,859c4,0,5.8-1.89,5.81-4.75s-1.81-4.76-5.79-4.77h-7.87l0,9.52h7.87Z" transform="translate(-9113.66 -818.71)"/><path class="cls-1" d="M9200.29,844.45l13.76,0c6.84,0,11.33,3.52,11.32,9.88s-4.51,9.86-11.35,9.85h-8l0,10.56h-5.71Zm13.56,14.65c4,0,5.8-1.89,5.81-4.75s-1.81-4.76-5.79-4.77H9206l0,9.52h7.87Z" transform="translate(-9113.66 -818.71)"/><path class="cls-1" d="M9230.85,844.5h5.54l0,22.24c0.26-.65,1.3-2.38,1.3-2.38l12.28-19.84h5.8l0,30.29h-5.54l0-22.37c-0.26.65-1.3,2.38-1.3,2.38l-12.27,20h-5.8Z" transform="translate(-9113.66 -818.71)"/><path class="cls-1" d="M9269.88,849.84l-9.26,0v-5.28l24.23,0v5.28l-9.26,0,0,25h-5.71Z" transform="translate(-9113.66 -818.71)"/><path class="cls-1" d="M9302.48,875.51c-8.91,0-15.56-6.73-15.55-15.77s6.69-15.74,15.6-15.72,15.56,6.73,15.55,15.77S9311.39,875.52,9302.48,875.51Zm9.81-15.73c0-6.53-4.27-10.48-9.76-10.49s-9.78,3.92-9.79,10.45,4.26,10.48,9.76,10.49S9312.27,866.31,9312.28,859.77Z" transform="translate(-9113.66 -818.71)"/><path class="cls-1" d="M9323.75,844.65l13.76,0c6.84,0,11.33,3.52,11.32,9.88s-4.51,9.86-11.35,9.85h-8l0,10.56h-5.71Zm13.56,14.65c4,0,5.8-1.89,5.81-4.75s-1.81-4.76-5.79-4.77h-7.87l0,9.52h7.87Z" transform="translate(-9113.66 -818.71)"/><path class="cls-1" d="M9354.31,844.7h5.54l0,22.24c0.26-.65,1.3-2.38,1.3-2.38l12.28-19.84h5.8l0,30.29h-5.54l0-22.37c-0.26.65-1.3,2.38-1.3,2.38l-12.27,20h-5.8Z" transform="translate(-9113.66 -818.71)"/><path class="cls-1" d="M9408.84,844.79l0,30.29h-5.71l0-11.42h-5.19L9391,875h-6.27l7.42-12.1c-4.67-1.26-7-4.25-7-9.19,0-5.49,4.13-9,10.79-9Zm-5.72,5h-7.23c-3.5,0-5.07,1.72-5.07,4.41s1.55,4.41,5.06,4.42h7.23V849.8Z" transform="translate(-9113.66 -818.71)"/><path class="cls-1" d="M9115.77,889.83l24,0,0,30.29H9134l0-25-12.55,0,0,25h-5.71Z" transform="translate(-9113.66 -818.71)"/><path class="cls-1" d="M9146.42,889.88l13.76,0c6.84,0,11.33,3.52,11.32,9.88s-4.51,9.86-11.35,9.85h-8l0,10.56h-5.71ZM9160,904.52c4,0,5.8-1.89,5.81-4.75S9164,895,9160,895h-7.87l0,9.52H9160Z" transform="translate(-9113.66 -818.71)"/><path class="cls-1" d="M9182.86,889.94h5.45l12.2,30.31h-6.1l-3-7.92-11.68,0-3,7.91h-6.1Zm6.59,17.27-2.76-7.27s-0.56-1.47-1.12-3.29c-0.57,1.82-1.13,3.29-1.13,3.29l-2.78,7.26h7.79Z" transform="translate(-9113.66 -818.71)"/><path class="cls-1" d="M9226.8,911.25c0,5.93-4.73,9.64-11.53,9.63-6.4,0-10.29-2.92-11.8-8.41l5.37-2.33a6.47,6.47,0,0,0,6.44,5.55c3.29,0,5.8-1.5,5.8-4.53,0-2.47-2.37-3.9-5.49-3.9h-3.33v-5h3.33c2.6,0,4.41-1.51,4.42-3.93s-1.85-3.72-4.62-3.73c-3.2,0-5,1.64-5.46,4l-5.1-1.48c0.74-4.2,4.12-7.74,10.61-7.73,6.88,0,10.12,3.65,10.11,8.37a7.45,7.45,0,0,1-3.64,6.44A7.38,7.38,0,0,1,9226.8,911.25Z" transform="translate(-9113.66 -818.71)"/><path class="cls-1" d="M9230.41,915h2.6c1.78-3.63,2.61-6.87,3-12.84l0.71-12.16,20.16,0,0,25h4.2l0,10.73h-5.32v-5.45l-19.95,0v5.45h-5.32Zm20.68,0,0-19.9h-9.17l-0.4,6.92c-0.35,6-1,9.13-2.53,13Z" transform="translate(-9113.66 -818.71)"/><path class="cls-1" d="M9271.82,890.08l0,12.2,13.24,0,0-12.2h5.71l0,30.29H9285l0-12.81-13.24,0,0,12.81h-5.71l0-30.29h5.71Z" transform="translate(-9113.66 -818.71)"/><path class="cls-1" d="M9297.46,890.13H9303l0,22.24c0.26-.65,1.3-2.38,1.3-2.38l12.28-19.84h5.8l0,30.29h-5.54l0-22.37c-0.26.65-1.3,2.38-1.3,2.38l-12.27,20h-5.8Z" transform="translate(-9113.66 -818.71)"/><path class="cls-1" d="M9353.28,920.5h-7.1l-9.24-11c-0.73-.82-1.47-1.78-2.25-2.64l0,13.63H9329l0-30.29h5.71l0,12.33c0.74-1,1.6-2,2.38-2.9l8.28-9.42h7.36l-13,14.21Z" transform="translate(-9113.66 -818.71)"/><path class="cls-1" d="M9368.88,890.24h5.45l12.2,30.31h-6.1l-3-7.92-11.68,0-3,7.91h-6.1Zm6.59,17.27-2.76-7.27s-0.56-1.47-1.12-3.29c-0.57,1.82-1.13,3.29-1.13,3.29l-2.78,7.26h7.79Z" transform="translate(-9113.66 -818.71)"/><path class="cls-1" d="M9118.47,948v10.4h12.11V948h2.87v23.88h-2.87V961h-12.11v10.88h-2.86V948h2.86Z" transform="translate(-9113.66 -818.71)"/><path class="cls-1" d="M9146.11,972.37a8.94,8.94,0,1,1,8.87-8.94A8.54,8.54,0,0,1,9146.11,972.37Zm6.11-8.94a6.1,6.1,0,1,0-6.11,6.45A6.1,6.1,0,0,0,9152.22,963.43Z" transform="translate(-9113.66 -818.71)"/><path class="cls-1" d="M9158.71,955h7.44c3.44,0,5.35,1.94,5.35,4.23A4.05,4.05,0,0,1,9169,963a4.14,4.14,0,0,1,3.17,4.09c0,2.76-2.35,4.81-5.9,4.81h-7.54V955Zm7.37,7c1.67,0,2.8-.78,2.8-2.39s-1.13-2.42-2.7-2.42h-4.74V962h4.64Zm0.27,7.67c1.91,0,3.07-1.06,3.07-2.76s-1.16-2.73-3.07-2.73h-4.91v5.49h4.91Z" transform="translate(-9113.66 -818.71)"/><path class="cls-1" d="M9175.88,955h2.76V961H9183c3.82,0,6.11,2,6.11,5.39s-2.29,5.46-6.11,5.46h-7.13V955Zm7.2,14.7a3.22,3.22,0,1,0,0-6.45h-4.44v6.45h4.44Zm11.56-14.7v16.92h-2.73V955h2.73Z" transform="translate(-9113.66 -818.71)"/><path class="cls-1" d="M9199.26,955H9202v13.3l8.77-13.3h3v16.92h-2.69v-13.3l-8.77,13.3h-3V955Zm3.75-6h2.15a1.36,1.36,0,1,0,2.7,0H9210A3.5,3.5,0,1,1,9203,949Z" transform="translate(-9113.66 -818.71)"/><path class="cls-1" d="M9228.34,948h15.28v2.52H9231.2v21.35h-2.86V948Z" transform="translate(-9113.66 -818.71)"/><path class="cls-1" d="M9250.65,972.37a8.94,8.94,0,1,1,8.87-8.94A8.54,8.54,0,0,1,9250.65,972.37Zm6.11-8.94a6.1,6.1,0,1,0-6.11,6.45A6.1,6.1,0,0,0,9256.75,963.44Z" transform="translate(-9113.66 -818.71)"/><path class="cls-1" d="M9261,969.47h1.6c0.92-1.67,1.3-3.51,1.47-6.72l0.44-7.78h12.18v14.5h2.42v6.38h-2.52v-4h-13.07v4H9261v-6.38Zm12.93,0V957.4h-7.09l-0.31,5.42c-0.17,3.48-.48,4.95-1.29,6.65h8.7Z" transform="translate(-9113.66 -818.71)"/><path class="cls-1" d="M9291.23,955.12h7.44c3.44,0,5.35,1.94,5.35,4.23a4.05,4.05,0,0,1-2.52,3.79,4.14,4.14,0,0,1,3.17,4.09c0,2.76-2.36,4.81-5.9,4.81h-7.54V955.12Zm7.37,7c1.67,0,2.8-.78,2.8-2.39s-1.12-2.42-2.69-2.42H9294v4.81h4.64Zm0.27,7.67c1.91,0,3.07-1.06,3.07-2.76s-1.16-2.73-3.07-2.73H9294v5.49h4.91Z" transform="translate(-9113.66 -818.71)"/><path class="cls-1" d="M9328.18,972l-7.17-7.88V972h-2.76V955.12H9321v7l6.79-7h3.45l-7.78,8,8.15,8.9h-3.44Z" transform="translate(-9113.66 -818.71)"/><path class="cls-1" d="M9344.64,968.7a6.42,6.42,0,0,1-5.87,3.82c-3.44,0-5.66-2.15-5.66-5.19,0-3.31,2.63-4.95,5.76-5.42l5.73-.89v-0.85c0-2.22-1.47-3.34-4-3.34s-4,1.33-4,2.76a1.31,1.31,0,0,0,.07.48l-2.42.51a3.19,3.19,0,0,1-.21-1.16c0-2.63,2.66-4.78,6.59-4.78,4.33,0,6.72,2,6.72,5.59v7.57a13.52,13.52,0,0,0,.51,4.23h-2.73A10.88,10.88,0,0,1,9344.64,968.7Zm0-4.88v-0.68l-5.19.82c-2.29.41-3.58,1.5-3.58,3.27s1.37,2.9,3.34,2.9C9342.59,970.13,9344.6,967.09,9344.6,963.82Z" transform="translate(-9113.66 -818.71)"/><path class="cls-1" d="M9369.17,972l-6.51-7.85V972h-2.76v-7.81l-6.52,7.81H9350l7.44-8.94-7.2-8h3.55l6.07,7v-7h2.76v7l6.07-7h3.55l-7.2,8,7.43,8.94h-3.34Z" transform="translate(-9113.66 -818.71)"/><path class="cls-1" d="M9373.65,969.62h1.6c0.92-1.67,1.3-3.51,1.47-6.72l0.44-7.78h12.18v14.5h2.42V976h-2.52v-4h-13.07v4h-2.52v-6.38Zm12.93,0V957.55h-7.09l-0.31,5.42c-0.17,3.48-.48,4.95-1.29,6.65h8.7Z" transform="translate(-9113.66 -818.71)"/><path class="cls-1" d="M9394.74,955.12h2.76v6.07h4.37c3.82,0,6.11,2,6.11,5.39s-2.29,5.46-6.11,5.46h-7.13V955.12Zm7.2,14.7a3.22,3.22,0,1,0,0-6.45h-4.44v6.45h4.44Zm11.56-14.7V972h-2.73V955.13h2.73Z" transform="translate(-9113.66 -818.71)"/><path class="cls-1" d="M9418.12,955.13h2.69v13.3l8.77-13.3h3V972h-2.69v-13.3l-8.77,13.3h-3V955.13Zm3.75-6H9424a1.36,1.36,0,1,0,2.7,0h2.15A3.5,3.5,0,1,1,9421.87,949.12Z" transform="translate(-9113.66 -818.71)"/><path class="cls-1" d="M9444.88,969.62h1.6c0.92-1.67,1.3-3.51,1.47-6.72l0.44-7.78h12.18v14.5H9463V976h-2.52v-4H9447.4v4h-2.52v-6.38Zm12.93,0V957.55h-7.09L9450.4,963c-0.17,3.48-.48,4.95-1.29,6.65h8.7Z" transform="translate(-9113.66 -818.71)"/><path class="cls-1" d="M9473.74,972.53a8.94,8.94,0,1,1,8.87-8.94A8.54,8.54,0,0,1,9473.74,972.53Zm6.11-8.94a6.1,6.1,0,1,0-6.11,6.45A6.1,6.1,0,0,0,9479.85,963.59Z" transform="translate(-9113.66 -818.71)"/><path class="cls-1" d="M9486.34,955.13h4l5.29,13.88,5.29-13.88h3.92v16.92h-2.66V958.78l-5.29,13.27h-2.56l-5.25-13.3V972h-2.69V955.13Z" transform="translate(-9113.66 -818.71)"/><path class="cls-1" d="M9510,968.57h3.38v3.48H9510v-3.48Zm0.24-12.79v-7.61h2.87v7.61l-0.41,10h-2Z" transform="translate(-9113.66 -818.71)"/><path class="cls-2" d="M9507,920.75l-41.57-.28a4.93,4.93,0,0,1-4.74-5.06,5,5,0,0,1,1.5-3.55l18.26-18Z" transform="translate(-9113.66 -818.71)"/><path class="cls-1" d="M9465.41,920.46a7.22,7.22,0,0,1-7-7.55l0.38-55.89c0.05-7.55-.3-12.87,5.13-18.22l20.37-20.1,35.64,36.18-57.75,57a5,5,0,0,0-1.5,3.55,4.93,4.93,0,0,0,4.74,5.06" transform="translate(-9113.66 -818.71)"/><path class="cls-2" d="M9507,920.75l-41.57-.28a4.93,4.93,0,0,1-4.74-5.06,5,5,0,0,1,1.5-3.55l18.26-18Z" transform="translate(-9113.66 -818.71)"/></svg>