<svg id="Слой_1" data-name="Слой 1"
  xmlns="http://www.w3.org/2000/svg" viewBox="0 0 94.7 107.79">
  <defs>
    <style>.cls-1{fill:#fff;}</style>
  </defs>
  <title>snowflake</title>
  <rect class="cls-1" x="46" width="2.69" height="107.79"/>
  <rect class="cls-1" x="9954.49" y="624.53" width="107.79" height="2.7" transform="translate(-8935.63 4510.97) rotate(-29.97)"/>
  <rect class="cls-1" x="10007.03" y="571.99" width="2.7" height="107.79" transform="translate(-5498.71 8408.58) rotate(-60)"/>
  <polygon class="cls-1" points="60.39 100.7 47.78 93.42 35.46 100.53 34.12 98.19 47.78 90.3 61.74 98.36 60.39 100.7"/>
  <polygon class="cls-1" points="81.79 87.5 79.1 87.5 79.1 71.73 93.06 63.67 94.41 66 81.79 73.29 81.79 87.5"/>
  <polygon class="cls-1" points="92.33 43.2 78.67 35.31 78.67 19.19 81.37 19.19 81.37 33.76 93.68 40.87 92.33 43.2"/>
  <polygon class="cls-1" points="46.92 17.48 32.96 9.42 34.3 7.08 46.92 14.37 59.23 7.26 60.58 9.59 46.92 17.48"/>
  <polygon class="cls-1" points="1.64 44.12 0.29 41.78 12.9 34.5 12.9 20.28 15.6 20.28 15.6 36.06 1.64 44.12"/>
  <polygon class="cls-1" points="16.03 88.59 13.33 88.59 13.33 74.03 1.02 66.92 2.36 64.58 16.03 72.47 16.03 88.59"/>
  <rect class="cls-1" x="67.56" y="52.55" width="26.46" height="2.69"/>
  <rect class="cls-1" x="10011.88" y="595.57" width="26.46" height="2.7" transform="translate(-5460.68 8411.6) rotate(-60.03)"/>
  <rect class="cls-1" x="9990.31" y="583.69" width="2.7" height="26.46" transform="translate(-8919.92 4505.7) rotate(-30.01)"/>
  <rect class="cls-1" x="0.67" y="52.55" width="26.47" height="2.69"/>
  <rect class="cls-1" x="9978.43" y="653.49" width="26.47" height="2.7" transform="translate(-5527.6 8411.62) rotate(-60.03)"/>
  <rect class="cls-1" x="10023.76" y="641.61" width="2.7" height="26.47" transform="translate(-8945.61 4527.76) rotate(-30)"/>
  <rect class="cls-1" x="9990.31" y="583.69" width="2.7" height="26.46" transform="translate(-8919.92 4505.7) rotate(-30.01)"/>
  <rect class="cls-1" x="67.33" y="41.58" width="2.69" height="24.63"/>
  <rect class="cls-1" x="10017.7" y="595.09" width="2.7" height="24.63" transform="translate(-5477.54 8408.47) rotate(-60)"/>
  <rect class="cls-1" x="9985.4" y="606.06" width="24.64" height="2.7" transform="translate(-8927.83 4503.17) rotate(-29.97)"/>
  <rect class="cls-1" x="24.67" y="41.58" width="2.69" height="24.63"/>
  <rect class="cls-1" x="9996.37" y="632.04" width="2.7" height="24.64" transform="translate(-5519.35 8409.04) rotate(-60.01)"/>
  <rect class="cls-1" x="10006.74" y="643.01" width="24.63" height="2.7" transform="translate(-8943.69 4518.25) rotate(-29.96)"/>
</svg>